<?xml version="1.0" encoding="UTF-8"?>
<svg version="1.1" xmlns="http://www.w3.org/2000/svg" width="500" height="500">
<path d="M0 0 C1.50337669 -0.01708511 1.50337669 -0.01708511 3.03712463 -0.03451538 C13.48563034 -0.14486231 23.93482393 -0.19253036 34.38378906 -0.23535156 C39.3395435 -0.25765388 44.29454814 -0.299472 49.25 -0.35839844 C55.24050147 -0.42948378 61.23029557 -0.4661821 67.22119713 -0.47846985 C69.50057276 -0.48886619 71.77992716 -0.51128004 74.05906105 -0.54606628 C77.25245213 -0.59230021 80.44306683 -0.59426939 83.63671875 -0.5859375 C84.57257813 -0.60953339 85.5084375 -0.63312927 86.47265625 -0.65744019 C92.78629091 -0.57792875 95.90328129 1.04673471 100.38270092 5.49030304 C100.9205185 6.06262413 101.45833609 6.63494522 102.01245117 7.22460938 C103.25188477 8.39830078 103.25188477 8.39830078 104.51635742 9.59570312 C105.19569336 10.27761719 105.8750293 10.95953125 106.57495117 11.66210938 C107.25686523 12.34144531 107.9387793 13.02078125 108.64135742 13.72070312 C113.2376928 18.57449386 117.53816275 23.59788472 121.5998432 28.90924644 C129.99525056 39.68768811 139.13109851 50.415436 153.25973511 52.54248047 C163.07492488 53.67980756 172.98236804 53.34038607 182.83561206 52.99691772 C187.80391144 52.85276345 192.7721532 52.86184346 197.74220276 52.85351562 C207.12386969 52.81569256 216.4982213 52.6479709 225.87723547 52.42940331 C237.57561362 52.16292076 249.27454456 52.06113103 260.9753418 51.96289062 C265.0896988 51.92750036 269.20404216 51.89092068 273.31837463 51.8527832 C274.31549172 51.84355803 275.31260881 51.83433287 276.33994156 51.82482815 C283.17309418 51.75697438 290.00459745 51.64470738 296.83677673 51.51245117 C299.55292073 51.4637009 302.26907567 51.41560446 304.98523331 51.36762047 C307.47245061 51.32005352 309.95920133 51.26082489 312.44615173 51.2011261 C326.45599485 50.9199012 336.53779281 52.40866736 348.19995117 60.41210938 C360.9034784 73.1156366 360.10868014 89.94182154 360.14526367 106.75195312 C360.08104075 110.54421195 359.79208751 114.30753949 359.50827026 118.08918762 C358.97660569 125.6867403 358.89648488 133.24766003 358.9465332 140.86401367 C358.95174578 142.2556033 358.95644991 143.64719492 358.96069336 145.03878784 C358.97052181 148.00147536 358.98332564 150.96412875 358.9984169 153.92679405 C359.02177314 158.62336837 359.03486821 163.31993883 359.04611206 168.01655579 C359.07931012 181.36013326 359.12118507 194.70364531 359.18383789 208.04711914 C359.21847706 215.44270073 359.24220663 222.83823574 359.25404632 230.23388988 C359.2620853 234.89133669 359.28317824 239.54847338 359.31425118 244.20582044 C359.33038404 247.11266598 359.33366987 250.01942551 359.33348083 252.92631149 C359.33701199 254.89199459 359.35548512 256.85763363 359.37460327 258.82322693 C359.35032033 269.68317799 358.33962303 279.82611176 351.03198242 288.31835938 C343.57608034 295.35603871 334.34147999 297.45718258 324.33052063 297.5098114 C323.23242688 297.51956154 323.23242688 297.51956154 322.11214942 297.52950865 C319.67433869 297.54874698 317.23670602 297.55406308 314.79882812 297.55932617 C313.03361755 297.57025192 311.26841196 297.58201081 309.50321198 297.59453201 C304.6832069 297.62612161 299.86322279 297.6453077 295.04314637 297.66210628 C289.89214782 297.68195211 284.74121028 297.71250835 279.59025574 297.74134827 C268.47072063 297.80124564 257.35115619 297.84541829 246.23153687 297.88621521 C239.34469381 297.91158995 232.45787036 297.94085705 225.57104492 297.97058105 C168.47848744 298.21397749 111.38567554 298.35155816 54.29325646 298.01298982 C49.03053217 297.98208477 43.76780476 297.9578508 38.5050354 297.93612671 C31.52318325 297.90673129 24.54162403 297.86021 17.55996132 297.801054 C15.05122389 297.78167895 12.54244532 297.76694724 10.03365135 297.7573719 C6.65064585 297.7431459 3.26831226 297.71052974 -0.11450195 297.67285156 C-1.56292748 297.67265282 -1.56292748 297.67265282 -3.04061413 297.67245007 C-12.93244479 297.52003559 -21.79813001 295.34997992 -28.98754883 288.22460938 C-34.91672016 280.66604745 -36.2855761 273.45087778 -36.25497437 264.04144287 C-36.25950548 263.01840034 -36.26403659 261.9953578 -36.26870501 260.94131398 C-36.28136141 257.51454096 -36.27972781 254.08792662 -36.27807617 250.66113281 C-36.28406067 248.20359594 -36.29086603 245.74606095 -36.2984314 243.28852844 C-36.3142713 237.30620764 -36.32054018 231.32394917 -36.32165615 225.3416132 C-36.32260753 220.47675225 -36.32672231 215.61190427 -36.3330574 210.74704742 C-36.35066588 196.94342673 -36.359897 183.1398371 -36.35839646 169.3362051 C-36.35831654 168.59248886 -36.35823663 167.84877262 -36.3581543 167.08251953 C-36.35807254 166.33789134 -36.35799077 165.59326314 -36.35790654 164.82607046 C-36.35709396 152.76338223 -36.3762255 140.70081897 -36.40443103 128.63816687 C-36.43318755 116.2416837 -36.44696977 103.84526142 -36.44524348 91.44874406 C-36.44458048 84.49334068 -36.45003274 77.53806827 -36.47159958 70.58269501 C-36.49175947 64.03929323 -36.4911094 57.49612031 -36.47656631 50.95268822 C-36.47447649 48.55416904 -36.47918937 46.1556326 -36.49128723 43.75714302 C-36.50676056 40.47634205 -36.49741678 37.19649147 -36.48202515 33.91571045 C-36.49231227 32.97230356 -36.5025994 32.02889667 -36.51319826 31.05690169 C-36.43276693 23.26926242 -34.65654119 16.37265165 -29.55004883 10.34960938 C-28.70442383 9.64835937 -27.85879883 8.94710937 -26.98754883 8.22460938 C-26.20379883 7.52335937 -25.42004883 6.82210937 -24.61254883 6.09960938 C-16.83283293 0.54266945 -9.17733714 0.07211879 0 0 Z " fill="#FBFBFC" transform="translate(88.987548828125,91.775390625)"/>
<path d="M0 0 C1.50337669 -0.01708511 1.50337669 -0.01708511 3.03712463 -0.03451538 C13.48563034 -0.14486231 23.93482393 -0.19253036 34.38378906 -0.23535156 C39.3395435 -0.25765388 44.29454814 -0.299472 49.25 -0.35839844 C55.24050147 -0.42948378 61.23029557 -0.4661821 67.22119713 -0.47846985 C69.50057276 -0.48886619 71.77992716 -0.51128004 74.05906105 -0.54606628 C77.25245213 -0.59230021 80.44306683 -0.59426939 83.63671875 -0.5859375 C84.57257813 -0.60953339 85.5084375 -0.63312927 86.47265625 -0.65744019 C92.78629091 -0.57792875 95.90328129 1.04673471 100.38270092 5.49030304 C100.9205185 6.06262413 101.45833609 6.63494522 102.01245117 7.22460938 C103.25188477 8.39830078 103.25188477 8.39830078 104.51635742 9.59570312 C105.19569336 10.27761719 105.8750293 10.95953125 106.57495117 11.66210938 C107.25686523 12.34144531 107.9387793 13.02078125 108.64135742 13.72070312 C113.2376928 18.57449386 117.53816275 23.59788472 121.5998432 28.90924644 C129.99525056 39.68768811 139.13109851 50.415436 153.25973511 52.54248047 C163.07492488 53.67980756 172.98236804 53.34038607 182.83561206 52.99691772 C187.80391144 52.85276345 192.7721532 52.86184346 197.74220276 52.85351562 C207.12386969 52.81569256 216.4982213 52.6479709 225.87723547 52.42940331 C237.57561362 52.16292076 249.27454456 52.06113103 260.9753418 51.96289062 C265.0896988 51.92750036 269.20404216 51.89092068 273.31837463 51.8527832 C274.31549172 51.84355803 275.31260881 51.83433287 276.33994156 51.82482815 C283.17309418 51.75697438 290.00459745 51.64470738 296.83677673 51.51245117 C299.55292073 51.4637009 302.26907567 51.41560446 304.98523331 51.36762047 C307.47245061 51.32005352 309.95920133 51.26082489 312.44615173 51.2011261 C326.45599485 50.9199012 336.53779281 52.40866736 348.19995117 60.41210938 C360.06017294 72.27233115 360.07232069 87.39407001 360.13745117 103.22460938 C360.12486861 110.59439495 359.62463562 117.87839597 359.01245117 125.22460938 C353.40245117 125.22460938 347.79245117 125.22460938 342.01245117 125.22460938 C342.00834229 123.96390625 342.0042334 122.70320313 342 121.40429688 C341.97812921 116.69994955 341.92375714 111.99642919 341.85986328 107.29248047 C341.83675246 105.26163698 341.82230389 103.23067481 341.81689453 101.19970703 C341.80755434 98.26976148 341.76645329 95.3416648 341.71948242 92.41210938 C341.72538139 91.06318604 341.72538139 91.06318604 341.73139954 89.68701172 C341.56501753 82.40015392 339.26130423 77.37193577 334.01245117 72.28710938 C330.10039061 70.2088272 326.00121229 70.09930154 321.64343643 70.09597492 C320.57311243 70.09275048 319.50278843 70.08952603 318.40003037 70.08620387 C316.64514003 70.08852678 316.64514003 70.08852678 314.85479736 70.09089661 C312.98356378 70.08749827 312.98356378 70.08749827 311.0745275 70.08403128 C307.61431155 70.07791489 304.15411976 70.07804669 300.69389963 70.07922566 C296.96098871 70.07942971 293.22808554 70.07391046 289.49517822 70.06916809 C282.18222693 70.0608616 274.8692837 70.05811324 267.55632809 70.05755571 C261.61115675 70.0570805 255.66598807 70.0550255 249.72081757 70.05185509 C232.86266423 70.04304812 216.00451727 70.03843572 199.14636162 70.03918556 C198.2375325 70.03922552 197.32870338 70.03926547 196.39233398 70.03930664 C195.02742426 70.03936796 195.02742426 70.03936796 193.63494059 70.03943052 C178.89118073 70.03983689 164.14744642 70.03026979 149.40369394 70.01616827 C134.26245422 70.00180096 119.12122695 69.9948983 103.97998023 69.99576205 C95.48035844 69.99609392 86.98076342 69.9933512 78.48114777 69.982584 C71.24356711 69.97347427 64.00602537 69.97130759 56.76844147 69.97809342 C53.07722881 69.98135639 49.38609079 69.98142344 45.69488525 69.97274017 C41.68921365 69.96341427 37.68371455 69.96965714 33.67803955 69.97737122 C31.93653354 69.96965587 31.93653354 69.96965587 30.15984559 69.96178466 C18.81793224 70.01004643 9.81498514 71.50862164 1.47729492 79.74023438 C0.24516205 81.17207075 -0.87460483 82.69828618 -1.98754883 84.22460938 C-2.66688477 85.0315625 -3.3462207 85.83851563 -4.04614258 86.66992188 C-7.10483333 91.28041168 -6.92033336 96.73338111 -7.23754883 102.09960938 C-7.35356445 103.70449219 -7.35356445 103.70449219 -7.47192383 105.34179688 C-7.65956205 107.96873199 -7.83092054 110.59567363 -7.98754883 113.22460938 C-7.21942871 113.21413574 -6.45130859 113.20366211 -5.65991211 113.19287109 C30.90817816 112.7720584 67.57195521 114.11029384 104.01245117 117.22460938 C103.85905273 118.13339844 103.7056543 119.0421875 103.54760742 119.97851562 C102.78078301 125.34628651 102.65489806 130.74949554 102.44995117 136.16210938 C102.38517578 137.76022461 102.38517578 137.76022461 102.3190918 139.390625 C102.21370628 142.0018438 102.11158029 144.61314684 102.01245117 147.22460938 C101.33045654 147.5478418 100.64846191 147.87107422 99.94580078 148.20410156 C99.04869385 148.63883789 98.15158691 149.07357422 97.22729492 149.52148438 C95.89492798 150.16102051 95.89492798 150.16102051 94.53564453 150.81347656 C88.35073842 154.27247582 85.69612075 159.24009758 83.61606979 165.80671883 C82.67324867 169.58333903 82.59351527 173.1977303 82.62426758 177.07397461 C82.61901062 177.90778656 82.61375366 178.74159851 82.6083374 179.60067749 C82.59524645 182.32838256 82.60383726 185.05549319 82.61401367 187.78320312 C82.61198961 189.69694632 82.60907541 191.61068875 82.60531616 193.52442932 C82.6009074 197.52458072 82.60727638 201.52453037 82.62133789 205.5246582 C82.6384172 210.6297461 82.62858723 215.73436031 82.6106205 220.83943081 C82.59973353 224.7884726 82.60325166 228.73740376 82.61100388 232.68644905 C82.61299292 234.56775024 82.61059258 236.44906176 82.60356522 238.33035088 C82.07380075 254.87374724 82.07380075 254.87374724 89.26245117 269.16210938 C95.86917102 275.56433552 103.20504993 275.67460561 111.90771484 275.67626953 C113.67986862 275.69379272 113.67986862 275.69379272 115.48782349 275.71166992 C118.71339717 275.73942326 121.93863007 275.75357563 125.16430831 275.75931215 C127.18546954 275.76368279 129.2065744 275.77206979 131.22771645 275.78181076 C138.29604629 275.81551043 145.36420994 275.83268596 152.43261719 275.83544922 C158.99319302 275.83847919 165.55282338 275.87887503 172.11312503 275.93659747 C177.76779534 275.98457661 183.42215577 276.00518149 189.0770281 276.00523984 C192.44478127 276.00577479 195.81087515 276.02041202 199.17854881 276.05641556 C202.94324928 276.09330343 206.70543212 276.08537074 210.47021484 276.06689453 C212.11421516 276.09757523 212.11421516 276.09757523 213.79142761 276.12887573 C222.92975801 276.00638322 230.53739574 272.7640974 237.01668072 266.1915226 C242.81516376 258.03667322 241.83922066 250.78368399 243.01245117 240.22460938 C275.68245117 240.22460938 308.35245117 240.22460938 342.01245117 240.22460938 C342.01245117 239.56460938 342.01245117 238.90460938 342.01245117 238.22460938 C347.62245117 237.89460937 353.23245117 237.56460938 359.01245117 237.22460938 C359.08200651 241.56280174 359.1415222 245.89899511 359.17724609 250.23730469 C359.19216546 251.70742411 359.21250844 253.17750038 359.23876953 254.64746094 C359.45004953 266.79398939 359.34559171 278.65707027 351.03198242 288.31835938 C343.57608034 295.35603871 334.34147999 297.45718258 324.33052063 297.5098114 C323.23242688 297.51956154 323.23242688 297.51956154 322.11214942 297.52950865 C319.67433869 297.54874698 317.23670602 297.55406308 314.79882812 297.55932617 C313.03361755 297.57025192 311.26841196 297.58201081 309.50321198 297.59453201 C304.6832069 297.62612161 299.86322279 297.6453077 295.04314637 297.66210628 C289.89214782 297.68195211 284.74121028 297.71250835 279.59025574 297.74134827 C268.47072063 297.80124564 257.35115619 297.84541829 246.23153687 297.88621521 C239.34469381 297.91158995 232.45787036 297.94085705 225.57104492 297.97058105 C168.47848744 298.21397749 111.38567554 298.35155816 54.29325646 298.01298982 C49.03053217 297.98208477 43.76780476 297.9578508 38.5050354 297.93612671 C31.52318325 297.90673129 24.54162403 297.86021 17.55996132 297.801054 C15.05122389 297.78167895 12.54244532 297.76694724 10.03365135 297.7573719 C6.65064585 297.7431459 3.26831226 297.71052974 -0.11450195 297.67285156 C-1.56292748 297.67265282 -1.56292748 297.67265282 -3.04061413 297.67245007 C-12.93244479 297.52003559 -21.79813001 295.34997992 -28.98754883 288.22460938 C-34.91672016 280.66604745 -36.2855761 273.45087778 -36.25497437 264.04144287 C-36.25950548 263.01840034 -36.26403659 261.9953578 -36.26870501 260.94131398 C-36.28136141 257.51454096 -36.27972781 254.08792662 -36.27807617 250.66113281 C-36.28406067 248.20359594 -36.29086603 245.74606095 -36.2984314 243.28852844 C-36.3142713 237.30620764 -36.32054018 231.32394917 -36.32165615 225.3416132 C-36.32260753 220.47675225 -36.32672231 215.61190427 -36.3330574 210.74704742 C-36.35066588 196.94342673 -36.359897 183.1398371 -36.35839646 169.3362051 C-36.35831654 168.59248886 -36.35823663 167.84877262 -36.3581543 167.08251953 C-36.35807254 166.33789134 -36.35799077 165.59326314 -36.35790654 164.82607046 C-36.35709396 152.76338223 -36.3762255 140.70081897 -36.40443103 128.63816687 C-36.43318755 116.2416837 -36.44696977 103.84526142 -36.44524348 91.44874406 C-36.44458048 84.49334068 -36.45003274 77.53806827 -36.47159958 70.58269501 C-36.49175947 64.03929323 -36.4911094 57.49612031 -36.47656631 50.95268822 C-36.47447649 48.55416904 -36.47918937 46.1556326 -36.49128723 43.75714302 C-36.50676056 40.47634205 -36.49741678 37.19649147 -36.48202515 33.91571045 C-36.49231227 32.97230356 -36.5025994 32.02889667 -36.51319826 31.05690169 C-36.43276693 23.26926242 -34.65654119 16.37265165 -29.55004883 10.34960938 C-28.70442383 9.64835937 -27.85879883 8.94710937 -26.98754883 8.22460938 C-26.20379883 7.52335937 -25.42004883 6.82210937 -24.61254883 6.09960938 C-16.83283293 0.54266945 -9.17733714 0.07211879 0 0 Z " fill="#5A398F" transform="translate(88.987548828125,91.775390625)"/>
<path d="M0 0 C6.42937943 4.34490694 11.50351741 8.94314917 15.625 15.5625 C15.625 16.5525 15.625 17.5425 15.625 18.5625 C16.285 18.5625 16.945 18.5625 17.625 18.5625 C23.45489258 32.17425811 22.00166617 47.08403203 21.625 61.5625 C22.85863281 61.52898437 24.09226562 61.49546875 25.36328125 61.4609375 C28.56711033 61.4651707 30.92988459 61.67550983 33.8125 63.1875 C34.42480469 63.48914063 35.03710938 63.79078125 35.66796875 64.1015625 C40.10950783 67.41720245 42.38800618 70.03391783 43.23300171 75.48403931 C43.25038286 76.98358444 43.24056643 78.48360725 43.20849609 79.98291016 C43.21083252 80.80641464 43.21316895 81.62991913 43.21557617 82.4783783 C43.21718452 85.18676227 43.18322454 87.89342161 43.1484375 90.6015625 C43.14164427 92.48911932 43.13692437 94.37668465 43.13418579 96.26425171 C43.12079337 101.22452617 43.07652199 106.18408177 43.02661133 111.144104 C42.99119009 115.195043 42.97812795 119.24590976 42.96619225 123.29697609 C42.95140177 128.12771665 42.92619132 132.95838101 42.8984375 137.7890625 C42.89352673 138.71050678 42.88861595 139.63195107 42.88355637 140.5813179 C42.86726954 143.18792234 42.84386478 145.79435527 42.81787109 148.40087891 C42.81148117 149.55738701 42.81148117 149.55738701 42.80496216 150.73725891 C42.7006828 159.37052716 42.7006828 159.37052716 39.3125 163.125 C32.90732329 168.93434632 32.90732329 168.93434632 27.66665649 168.95690918 C26.16948845 168.97393387 26.16948845 168.97393387 24.64207458 168.99130249 C23.55314407 168.98837189 22.46421356 168.98544128 21.34228516 168.98242188 C20.19066391 168.99089142 19.03904266 168.99936096 17.8525238 169.00808716 C14.03959151 169.03151643 10.22706139 169.03247781 6.4140625 169.03125 C3.76614215 169.03834832 1.11822334 169.04604682 -1.5296936 169.05432129 C-7.08298008 169.06892704 -12.63615428 169.06950958 -18.18945312 169.06347656 C-24.60165226 169.05683838 -31.01327578 169.07969103 -37.42535818 169.11679029 C-42.93634868 169.14751515 -48.4471543 169.15884428 -53.95822871 169.15495348 C-57.24721042 169.15288847 -60.53564481 169.16056652 -63.82456589 169.18284607 C-67.49467401 169.20496984 -71.16339289 169.19536487 -74.83349609 169.17773438 C-75.91837814 169.19099762 -77.00326019 169.20426086 -78.12101746 169.21792603 C-86.34340072 169.12610744 -86.34340072 169.12610744 -89.90884399 166.39904785 C-94.74577023 160.83566391 -95.82126323 156.33175521 -95.77905273 149.08203125 C-95.78591599 148.25198578 -95.79277924 147.42194031 -95.79985046 146.56674194 C-95.81808095 143.83598497 -95.81428682 141.10580449 -95.80859375 138.375 C-95.81315693 136.46980605 -95.81846292 134.56461375 -95.82447815 132.65942383 C-95.83340156 128.67164409 -95.83099438 124.68406472 -95.82104492 120.69628906 C-95.80954866 115.59174479 -95.82978074 110.48789161 -95.85896206 105.38343811 C-95.87732588 101.45084254 -95.87703136 97.5184126 -95.87132454 93.58578491 C-95.87117139 91.70395945 -95.87721064 89.82212271 -95.88961601 87.94033813 C-95.90452999 85.30744284 -95.89384694 82.67582467 -95.87670898 80.04296875 C-95.88637695 79.26980316 -95.89604492 78.49663757 -95.90600586 77.70004272 C-95.82100258 71.44897176 -93.7143511 67.9018511 -89.375 63.5625 C-86.12882456 62.42059315 -83.04170275 62.45932497 -79.625 62.5 C-78.64015625 62.50902344 -77.6553125 62.51804687 -76.640625 62.52734375 C-75.89296875 62.53894531 -75.1453125 62.55054688 -74.375 62.5625 C-74.39071045 61.60996338 -74.4064209 60.65742676 -74.42260742 59.67602539 C-74.47737697 56.10335931 -74.51151884 52.53072946 -74.53979492 48.95776367 C-74.55477543 47.41863745 -74.5751671 45.87955312 -74.60131836 44.34057617 C-74.86387569 28.47902453 -71.60347909 16.36679854 -60.375 4.5625 C-58.74004293 3.51145617 -57.07616376 2.50261682 -55.375 1.5625 C-54.90835938 1.08296875 -54.44171875 0.6034375 -53.9609375 0.109375 C-52.26909072 -1.54080068 -50.73805399 -2.45615133 -48.625 -3.5 C-47.99078125 -3.82097656 -47.3565625 -4.14195312 -46.703125 -4.47265625 C-30.98589316 -10.98634126 -14.32969564 -8.39077235 0 0 Z " fill="#353941" transform="translate(277.375,188.4375)"/>
<path d="M0 0 C6.7144065 5.55937627 11.11985535 11.24628481 13.87890625 19.5234375 C13.87890625 29.0934375 13.87890625 38.6634375 13.87890625 48.5234375 C-7.24109375 48.5234375 -28.36109375 48.5234375 -50.12109375 48.5234375 C-50.12109375 20.5234375 -50.12109375 20.5234375 -49.12109375 14.5234375 C-48.46109375 14.5234375 -47.80109375 14.5234375 -47.12109375 14.5234375 C-47.07984375 13.8428125 -47.03859375 13.1621875 -46.99609375 12.4609375 C-45.09016651 6.06246748 -39.89095827 1.76961201 -34.2421875 -1.4765625 C-23.9232553 -6.34147344 -9.54346315 -6.64351579 0 0 Z " fill="#FBFCFC" transform="translate(269.12109375,201.4765625)"/>
<path d="M0 0 C3.74834389 2.67837464 7.08339676 5.42758327 8.68359375 9.828125 C9.20705363 15.01123593 9.43274243 20.24621053 6.68359375 24.828125 C4.12109375 27.578125 4.12109375 27.578125 1.68359375 29.828125 C0.38145401 30.90660886 0.38145401 30.90660886 0.55078125 33.48828125 C0.52501139 40.77246512 0.52501139 40.77246512 1.18359375 48.015625 C1.79427385 52.67206077 1.74879355 57.13373946 1.68359375 61.828125 C-4.58640625 61.828125 -10.85640625 61.828125 -17.31640625 61.828125 C-17.17203125 59.4975 -17.02765625 57.166875 -16.87890625 54.765625 C-16.81207642 53.59894287 -16.81207642 53.59894287 -16.74389648 52.40869141 C-16.53327913 48.79230053 -16.265293 45.200764 -15.8515625 41.6015625 C-15.71621094 40.29445313 -15.58085937 38.98734375 -15.44140625 37.640625 C-15.29960937 36.45082031 -15.1578125 35.26101563 -15.01171875 34.03515625 C-15.41863428 29.7521095 -17.09890064 28.5480782 -20.31640625 25.828125 C-24.07826214 21.45623843 -25.07035569 18.00646343 -24.83203125 12.36328125 C-23.68485558 6.72300087 -20.09489076 3.12156828 -15.56640625 -0.171875 C-10.23635285 -1.81189143 -5.1350184 -2.59781707 0 0 Z " fill="#F8F9F9" transform="translate(258.31640625,276.171875)"/>
<path d="M0 0 C4.22142541 4.09726584 5.2743223 9.75818472 5.4375 15.5 C5.19577318 21.49062121 4.8958116 27.79364764 1.125 32.625 C-3.31090953 35.81330997 -7.55694327 35.51545751 -12.875 35.0625 C-16.36933793 33.72424292 -17.49666668 32.66359893 -19.48046875 29.51171875 C-21.23120455 25.18146745 -21.31819589 21.61837734 -21.25 17 C-21.26160156 16.21044922 -21.27320313 15.42089844 -21.28515625 14.60742188 C-21.25665725 8.94087112 -20.11629786 5.67734751 -16.375 1.3125 C-12.00827602 -2.32643665 -5.0815196 -1.65701726 0 0 Z " fill="#A5A8B1" transform="translate(424.875,230.9375)"/>
<path d="M0 0 C0 0.66 0 1.32 0 2 C1.2065625 2.3403125 1.2065625 2.3403125 2.4375 2.6875 C3.283125 3.120625 4.12875 3.55375 5 4 C5.8125 6.625 5.8125 6.625 6 9 C6.66 9 7.32 9 8 9 C8.08172936 11.5215021 8.14083373 14.04029917 8.1875 16.5625 C8.21263672 17.26697266 8.23777344 17.97144531 8.26367188 18.69726562 C8.33525473 23.87509186 7.47502641 27.42353608 5 32 C2.3125 33.4375 2.3125 33.4375 0 34 C0 34.66 0 35.32 0 36 C-9.93436141 36.78291815 -9.93436141 36.78291815 -14.0625 33.75 C-17.8911967 28.31572081 -18.33884504 24.62241503 -18.3125 18.0625 C-18.32861328 17.26392578 -18.34472656 16.46535156 -18.36132812 15.64257812 C-18.3660752 9.91286105 -17.24147662 6.72875415 -13.5625 2.25 C-9.67254097 -0.86196722 -4.72839527 -0.07880659 0 0 Z " fill="#A7ABB3" transform="translate(422,281)"/>
<path d="M0 0 C4.15173563 2.53717178 6.83708917 5.28310129 8.53125 9.921875 C10.48360048 18.57729544 9.02556353 27.03807582 4.4375 34.5625 C-0.26330765 37.33477118 -5.67183086 36.40489898 -10.875 35.5 C-14.46876826 32.9632224 -15.92407901 30.14258349 -17 26 C-17.34401753 23.14356817 -17.45631386 20.3130397 -17.5 17.4375 C-17.51844971 16.71747803 -17.53689941 15.99745605 -17.5559082 15.25561523 C-17.49264809 9.77954416 -16.19852645 6.46554837 -13 2 C-9.09408943 -0.7866279 -4.61783186 -0.76963864 0 0 Z " fill="#A7AAB1" transform="translate(358,230)"/>
<path d="M0 0 C1.62490954 -0.02698189 3.24994633 -0.04638757 4.875 -0.0625 C5.77992187 -0.07410156 6.68484375 -0.08570313 7.6171875 -0.09765625 C10 0 10 0 12 1 C13.83059141 1.0976782 15.66478293 1.1302521 17.4979763 1.13307858 C19.26110572 1.13944014 19.26110572 1.13944014 21.05985391 1.14593023 C22.36254933 1.1455441 23.66524474 1.14515797 25.00741577 1.14476013 C26.39634987 1.14789221 27.78528303 1.15146663 29.17421496 1.15544754 C33.00430563 1.16517098 36.83438138 1.16870015 40.66448259 1.17129052 C44.78999582 1.17517681 48.91549577 1.18481446 53.04100037 1.19384766 C60.19407253 1.20880283 67.34714363 1.22033989 74.50022507 1.22979546 C84.84683658 1.24365103 95.19342354 1.26483608 105.54001744 1.28822399 C122.33103448 1.32616405 139.12205596 1.36112464 155.91308594 1.39282227 C156.91874287 1.39472276 157.9243998 1.39662325 158.96053119 1.39858133 C173.23387198 1.42541609 187.50721622 1.44928828 201.78056414 1.47196633 C203.28813997 1.47436229 203.28813997 1.47436229 204.82617188 1.47680664 C206.33191755 1.47919684 206.33191755 1.47919684 207.86808233 1.48163532 C224.59236658 1.50838193 241.31662469 1.54277254 258.0408808 1.58346039 C268.36398978 1.60826629 278.68707059 1.62657569 289.01020469 1.636616 C296.0815709 1.64399483 303.15289932 1.65850256 310.22424053 1.67868023 C314.30770182 1.69009594 318.39110208 1.6982042 322.47458076 1.69767189 C326.2101549 1.69724546 329.94559153 1.70591279 333.68113036 1.72192169 C335.67829727 1.72807051 337.67548696 1.72435207 339.67265928 1.72032636 C340.85329438 1.72717516 342.03392949 1.73402395 343.25034142 1.74108028 C344.2714644 1.74281653 345.29258738 1.74455278 346.34465349 1.74634165 C349.0445602 2.00425672 350.69229312 2.61617803 353 4 C157.87749938 5.3011703 157.87749938 5.3011703 75.27506751 4.78981489 C70.01498982 4.75763834 64.75491135 4.7327968 59.49478149 4.71096802 C52.51236695 4.68149794 45.53024156 4.63520813 38.54801369 4.57631874 C36.0390623 4.55702706 33.53007022 4.54234936 31.02106285 4.53279686 C27.6381028 4.51856735 24.25581544 4.48593881 20.87304688 4.44824219 C19.90743237 4.44810906 18.94181787 4.44797594 17.94694233 4.44783878 C11.53695659 4.3490777 6.03766352 3.1421321 0 1 C0 0.67 0 0.34 0 0 Z " fill="#593859" transform="translate(68,385)"/>
<path d="M0 0 C0.33 0 0.66 0 1 0 C1 85.14 1 170.28 1 258 C1.99 258 2.98 258 4 258 C5.07525194 260.65228812 6.09456151 263.28368454 7 266 C7.99 266.33 8.98 266.66 10 267 C12.5859495 269.08865152 13.4376049 270.73810844 14 274 C8.67907135 272.59151889 6.01663214 269.36783474 3 265 C-0.58137336 258.11145358 -1.57696986 251.98010785 -1.48774719 244.29544067 C-1.49187046 243.26474705 -1.49599372 242.23405342 -1.50024194 241.17212665 C-1.50912026 237.74354352 -1.48956677 234.31573649 -1.4699707 230.88720703 C-1.47047984 228.41934619 -1.47273769 225.95148518 -1.47660828 223.48362732 C-1.48145648 217.49306921 -1.46790122 211.50281079 -1.44588266 205.51231261 C-1.42112113 198.53331383 -1.41827509 191.55435679 -1.41647889 184.57532059 C-1.41260868 172.12568401 -1.39018113 159.67615178 -1.35668945 147.2265625 C-1.32422281 135.14810754 -1.30300079 123.06970765 -1.29516602 110.99121094 C-1.29468052 110.2463639 -1.29419503 109.50151685 -1.29369483 108.73409869 C-1.29176607 105.74005454 -1.28985394 102.74601037 -1.28797873 99.75196619 C-1.2804486 88.23332178 -1.26482382 76.7146864 -1.24748212 65.19605307 C-1.24224718 61.71752322 -1.237314 58.23899355 -1.2331202 54.76046228 C-1.22344797 46.8323728 -1.20887108 38.9043254 -1.1862812 30.97625923 C-1.18015188 28.57199918 -1.17570553 26.16773418 -1.17303848 23.76346779 C-1.16906548 20.4898321 -1.15895567 17.216273 -1.14717102 13.94265747 C-1.14735538 12.98450201 -1.14753975 12.02634655 -1.14772969 11.03915608 C-1.14327185 10.16302658 -1.13881401 9.28689709 -1.13422108 8.38421822 C-1.13243251 7.6286794 -1.13064394 6.87314059 -1.12880117 6.09470665 C-0.99711209 3.95303368 -0.5866846 2.05977745 0 0 Z " fill="#674166" transform="translate(54,111)"/>
<path d="M0 0 C0 11.88 0 23.76 0 36 C-2.31 36 -4.62 36 -7 36 C-7 27.09 -7 18.18 -7 9 C-8.98 10.32 -10.96 11.64 -13 13 C-13.99 13 -14.98 13 -16 13 C-16.33 11.35 -16.66 9.7 -17 8 C-15.49770238 6.64581623 -13.97216598 5.31738838 -12.4375 4 C-11.59058594 3.2575 -10.74367188 2.515 -9.87109375 1.75 C-7 0 -7 0 0 0 Z " fill="#AAACB4" transform="translate(360,281)"/>
<path d="M0 0 C0 11.88 0 23.76 0 36 C-2.31 36 -4.62 36 -7 36 C-7 27.42 -7 18.84 -7 10 C-8.98 10.99 -10.96 11.98 -13 13 C-15.375 12.1875 -15.375 12.1875 -17 11 C-15.58595773 7.75559844 -13.91415226 5.64208892 -11.3125 3.25 C-10.66925781 2.63640625 -10.02601563 2.0228125 -9.36328125 1.390625 C-7 0 -7 0 0 0 Z " fill="#AEAEB5" transform="translate(392,230)"/>
<path d="M0 0 C0 11.55 0 23.1 0 35 C-2.31 35 -4.62 35 -7 35 C-7 26.42 -7 17.84 -7 9 C-9.99332739 9.9977758 -10.94766315 10.7522025 -13 13 C-14.32 12.34 -15.64 11.68 -17 11 C-15.58595773 7.75559844 -13.91415226 5.64208892 -11.3125 3.25 C-10.66925781 2.63640625 -10.02601563 2.0228125 -9.36328125 1.390625 C-7 0 -7 0 0 0 Z " fill="#ACAFB7" transform="translate(392,281)"/>
<path d="M0 0 C1.19625 0.12375 2.3925 0.2475 3.625 0.375 C7.92406304 5.74141663 7.34556426 11.84079231 6.625 18.375 C5.70530752 21.42969287 5.09119632 22.1617469 2.625 24.375 C-0.9375 25.0625 -0.9375 25.0625 -4.375 24.375 C-7.35804869 20.6065759 -7.78317611 17.60812476 -7.75 12.875 C-7.75773437 11.7715625 -7.76546875 10.668125 -7.7734375 9.53125 C-7.10619966 4.24567966 -5.38201444 0.5980016 0 0 Z " fill="#F6F7F8" transform="translate(417.375,235.625)"/>
<path d="M0 0 C2.12386703 1.58459057 2.90925115 2.44451294 3.34057617 5.0847168 C3.32486572 5.86500244 3.30915527 6.64528809 3.29296875 7.44921875 C3.28330078 8.29677734 3.27363281 9.14433594 3.26367188 10.01757812 C3.23853516 10.89865234 3.21339844 11.77972656 3.1875 12.6875 C3.17396484 13.58017578 3.16042969 14.47285156 3.14648438 15.39257812 C3.11114079 17.59566166 3.06180493 19.79752582 3 22 C2.34 22 1.68 22 1 22 C0.67 22.99 0.34 23.98 0 25 C-2.8125 25.25 -2.8125 25.25 -6 25 C-8.06416461 23.2149066 -8.89363948 21.73856895 -9.28344727 19.03173828 C-9.40444978 16.65947237 -9.40895536 14.3124888 -9.375 11.9375 C-9.38660156 11.12216797 -9.39820313 10.30683594 -9.41015625 9.46679688 C-9.40628906 8.68240234 -9.40242188 7.89800781 -9.3984375 7.08984375 C-9.39336182 6.02044556 -9.39336182 6.02044556 -9.38818359 4.92944336 C-8.35186331 -0.22152468 -4.63027593 -0.57878449 0 0 Z " fill="#F8F9FA" transform="translate(420,287)"/>
<path d="M0 0 C1.99092174 1.77178047 2.88253228 3.22459182 3.28393555 5.87426758 C3.40422815 8.1116074 3.40902811 10.32231591 3.375 12.5625 C3.38660156 13.33013672 3.39820313 14.09777344 3.41015625 14.88867188 C3.38129704 20.40559133 3.38129704 20.40559133 1.70703125 23.015625 C-1.09278902 24.63016666 -3.85607221 24.17795818 -7 24 C-10.43776774 17.26770484 -11.00932795 11.35641632 -9.125 4 C-7.34066344 -0.75823083 -4.76475505 -0.4861995 0 0 Z " fill="#F9F9FA" transform="translate(357,236)"/>
<path d="M0 0 C5.61 0 11.22 0 17 0 C16.67 36.96 16.34 73.92 16 112 C13.59272633 109.59272633 13.74368996 109.0368282 13.71479797 105.7487793 C13.70218933 104.85701996 13.68958069 103.96526062 13.67658997 103.04647827 C13.67285873 102.06563263 13.6691275 101.08478699 13.6652832 100.07421875 C13.65363129 99.0432608 13.64197937 98.01230286 13.62997437 96.95010376 C13.5938763 93.52925261 13.57209082 90.10847284 13.55078125 86.6875 C13.52954148 84.31859697 13.50757498 81.94970036 13.48490906 79.58081055 C13.43944646 74.61086844 13.40066997 69.64093378 13.36694336 64.67089844 C13.32339939 58.28804482 13.26667991 51.90539515 13.2053957 45.52268982 C13.15929102 40.62954768 13.11846396 35.73637338 13.07942772 30.84317017 C13.06032801 28.48913532 13.0399636 26.13511039 13.01833534 23.78109741 C12.98927859 20.49600516 12.96691079 17.21093729 12.9465332 13.92578125 C12.93672928 12.94493561 12.92692535 11.96408997 12.91682434 10.95352173 C12.91267517 10.06176239 12.908526 9.17000305 12.9042511 8.2512207 C12.8985526 7.47398148 12.8928541 6.69674225 12.88698292 5.89595032 C13 4 13 4 14 2 C7.07 1.505 7.07 1.505 0 1 C0 0.67 0 0.34 0 0 Z " fill="#FBF6DA" transform="translate(431,217)"/>
<path d="M0 0 C0.66 0.33 1.32 0.66 2 1 C2 5 2 5 0.51171875 7.07421875 C-1.79855648 11.54552662 -1.31714803 15.86260463 -1.1875 20.8125 C-1.17396484 21.79154297 -1.16042969 22.77058594 -1.14648438 23.77929688 C-1.11125312 26.18676625 -1.06199265 28.59309564 -1 31 C-4.78466797 30.24951172 -4.78466797 30.24951172 -6.72265625 28.00390625 C-8.46254032 23.91225227 -8.47657299 20.3385397 -8.4375 15.9375 C-8.45748047 15.13505859 -8.47746094 14.33261719 -8.49804688 13.50585938 C-8.49484981 9.65339205 -8.45607557 7.63424522 -6.16015625 4.44140625 C-4 3 -4 3 -1 3 C-0.67 2.01 -0.34 1.02 0 0 Z " fill="#A2A5AE" transform="translate(412,232)"/>
<path d="M0 0 C-0.66 1.32 -1.32 2.64 -2 4 C-2.66 4 -3.32 4 -4 4 C-4.7795458 6.80747455 -5.1710149 9.42029808 -5.31640625 12.328125 C-5.35830078 13.12734375 -5.40019531 13.9265625 -5.44335938 14.75 C-5.50233398 15.9875 -5.50233398 15.9875 -5.5625 17.25 C-5.60568359 18.09046875 -5.64886719 18.9309375 -5.69335938 19.796875 C-5.79908543 21.86440671 -5.90001295 23.93218281 -6 26 C-7.98 26.99 -7.98 26.99 -10 28 C-11.61436816 25.14639988 -12.25519169 23.08557787 -12.265625 19.8125 C-12.26949219 18.64074219 -12.26949219 18.64074219 -12.2734375 17.4453125 C-12.26183594 16.23488281 -12.26183594 16.23488281 -12.25 15 C-12.25773437 14.19304687 -12.26546875 13.38609375 -12.2734375 12.5546875 C-12.27085937 11.77351563 -12.26828125 10.99234375 -12.265625 10.1875 C-12.26336914 9.47980469 -12.26111328 8.77210938 -12.25878906 8.04296875 C-11.95029293 5.60759547 -11.33375131 4.06095557 -10 2 C-3.8028169 -1.26760563 -3.8028169 -1.26760563 0 0 Z " fill="#A3A7B0" transform="translate(416,284)"/>
<path d="M0 0 C1.01510147 -0.00014603 2.03020294 -0.00029205 3.07606506 -0.0004425 C6.42532501 0.00025316 9.77452908 0.00802942 13.1237793 0.01586914 C15.44833852 0.01773455 17.77289813 0.01915787 20.09745789 0.02015686 C26.21140633 0.02397237 32.32533097 0.03379444 38.43927002 0.04486084 C44.67980629 0.05509571 50.92034642 0.05965893 57.16088867 0.06469727 C69.40243558 0.07541755 81.64396483 0.0924824 93.88549805 0.11352539 C93.88549805 0.44352539 93.88549805 0.77352539 93.88549805 1.11352539 C92.63570663 1.12161224 91.38591522 1.1296991 90.09825134 1.13803101 C78.31270914 1.2155591 66.52728144 1.30331539 54.741889 1.40105247 C48.68309246 1.45097066 42.62431299 1.49730127 36.56542969 1.53540039 C30.71687099 1.5723095 24.86845656 1.61868506 19.02002144 1.6715889 C16.79017229 1.69010289 14.56029224 1.70522187 12.33039665 1.71686935 C9.2040013 1.73378285 6.07793418 1.76283073 2.95166016 1.79467773 C2.0324025 1.79683792 1.11314484 1.79899811 0.16603088 1.80122375 C-4.96975817 1.86793287 -9.24692841 2.45180571 -14.11450195 4.11352539 C-14.44450195 5.43352539 -14.77450195 6.75352539 -15.11450195 8.11352539 C-16.43450195 7.78352539 -17.75450195 7.45352539 -19.11450195 7.11352539 C-18.78450195 6.78352539 -18.45450195 6.45352539 -18.11450195 6.11352539 C-19.10450195 5.78352539 -20.09450195 5.45352539 -21.11450195 5.11352539 C-21.11450195 5.77352539 -21.11450195 6.43352539 -21.11450195 7.11352539 C-25.49911734 10.11352539 -25.49911734 10.11352539 -28.11450195 10.11352539 C-28.11450195 10.77352539 -28.11450195 11.43352539 -28.11450195 12.11352539 C-28.77450195 11.78352539 -29.43450195 11.45352539 -30.11450195 11.11352539 C-22.01284163 1.66158835 -11.82112356 -0.04452612 0 0 Z " fill="#553A52" transform="translate(89.114501953125,91.886474609375)"/>
<path d="M0 0 C1.1055189 0.93590504 2.20935453 1.87379858 3.3125 2.8125 C3.92738281 3.33457031 4.54226562 3.85664063 5.17578125 4.39453125 C10.29274025 8.89789345 10.29274025 8.89789345 11 13 C10.34 13 9.68 13 9 13 C9 13.66 9 14.32 9 15 C8.01 15.33 7.02 15.66 6 16 C5.01 15.34 4.02 14.68 3 14 C2.66666667 12 2.33333333 10 2 8 C-0.91765 6.0549 -2.62537285 5.54723683 -6 5 C-5.67 4.01 -5.34 3.02 -5 2 C-3.35 2 -1.7 2 0 2 C0 1.34 0 0.68 0 0 Z " fill="#57387E" transform="translate(217,127)"/>
<path d="M0 0 C7.35151381 1.14007433 13.80927092 4.98486096 18.375 10.875 C25.32276271 21.20757019 25.32276271 21.20757019 24.59765625 25.234375 C24.40042969 25.81703125 24.20320313 26.3996875 24 27 C23.7525 26.38125 23.505 25.7625 23.25 25.125 C21.79371361 22.64931313 20.62187494 22.04874998 18 21 C18.33 19.02 18.66 17.04 19 15 C18.01 15.33 17.02 15.66 16 16 C16 15.34 16 14.68 16 14 C15.34 14 14.68 14 14 14 C14.33 12.68 14.66 11.36 15 10 C12.64031256 7.90250005 11.45383006 7.03094296 8.25 6.8125 C7.5075 6.874375 6.765 6.93625 6 7 C5.62875 6.1028125 5.62875 6.1028125 5.25 5.1875 C3.83629988 2.71352479 2.34944617 1.56629745 0 0 Z " fill="#52357B" transform="translate(422,145)"/>
<path d="M0 0 C27.94514191 -0.20638953 27.94514191 -0.20638953 41 1 C41 1.33 41 1.66 41 2 C27.47 2.33 13.94 2.66 0 3 C0 2.01 0 1.02 0 0 Z " fill="#5F4785" transform="translate(89,205)"/>
<path d="M0 0 C0.33 0 0.66 0 1 0 C1.02578125 1.09699219 1.0515625 2.19398438 1.078125 3.32421875 C1.1344269 4.77868448 1.19177377 6.23311003 1.25 7.6875 C1.26417969 8.40873047 1.27835937 9.12996094 1.29296875 9.87304688 C1.52332063 14.9177531 2.60497686 17.1069466 6 21 C5.67 21.99 5.34 22.98 5 24 C7.31 24 9.62 24 12 24 C12 24.33 12 24.66 12 25 C1.89867004 25.6269791 1.89867004 25.6269791 -1.6875 23.125 C-3 21 -3 21 -3 19 C-2.34 18.67 -1.68 18.34 -1 18 C-0.505 9.09 -0.505 9.09 0 0 Z " fill="#B6BAC2" transform="translate(410,292)"/>
<path d="M0 0 C4.32504836 1.65863505 7.09418825 4.871041 10.25 8.125 C11.08144531 8.96998047 11.08144531 8.96998047 11.9296875 9.83203125 C13.29104485 11.21686028 14.64614859 12.60783204 16 14 C13 16 13 16 11 16 C10.67 15.01 10.34 14.02 10 13 C7.98491642 12.26676204 7.98491642 12.26676204 6 12 C5.67 10.68 5.34 9.36 5 8 C4.01 8 3.02 8 2 8 C2.33 6.35 2.66 4.7 3 3 C2.34 3 1.68 3 1 3 C0.67 2.01 0.34 1.02 0 0 Z " fill="#58387A" transform="translate(183,93)"/>
<path d="M0 0 C0.33 0 0.66 0 1 0 C1 2.64 1 5.28 1 8 C1.99 8 2.98 8 4 8 C5.07525194 10.65228812 6.09456151 13.28368454 7 16 C7.99 16.33 8.98 16.66 10 17 C12.5859495 19.08865152 13.4376049 20.73810844 14 24 C7.66799248 22.32388036 4.53729949 17.35719256 1.125 12.125 C-0.3586041 8.00387749 -0.25989672 4.33161198 0 0 Z " fill="#532F68" transform="translate(54,361)"/>
<path d="M0 0 C1.60031344 3.20062687 0.03173691 5.72271806 -1 9 C-1.66 8.67 -2.32 8.34 -3 8 C-3.33 14.27 -3.66 20.54 -4 27 C-4.33 27 -4.66 27 -5 27 C-5.77581772 22.05416205 -6.13797258 17.19512583 -6.25 12.1875 C-6.28867187 10.53814453 -6.28867187 10.53814453 -6.328125 8.85546875 C-6 6 -6 6 -4.609375 4.11328125 C-3 3 -3 3 -1 3 C-0.67 2.01 -0.34 1.02 0 0 Z " fill="#64656B" transform="translate(264,301)"/>
<path d="M0 0 C0.66 1.32 1.32 2.64 2 4 C4.31 4 6.62 4 9 4 C7.74458443 6.51083114 6.49936512 6.87125446 4 8 C6.31 8.33 8.62 8.66 11 9 C11 9.33 11 9.66 11 10 C0.44191344 10.55353075 0.44191344 10.55353075 -4 7 C-3.34 6.67 -2.68 6.34 -2 6 C-1.34 6.33 -0.68 6.66 0 7 C-0.2784375 5.824375 -0.2784375 5.824375 -0.5625 4.625 C-1 2 -1 2 0 0 Z " fill="#B8BAC3" transform="translate(411,256)"/>
<path d="M0 0 C0.33 0 0.66 0 1 0 C1 7.59 1 15.18 1 23 C0.67 23 0.34 23 0 23 C0 17.06 0 11.12 0 5 C-3.03875847 3.48062077 -4.55499582 2.90531826 -7.9375 3.625 C-11 4 -11 4 -13.19140625 2.5234375 C-13.78824219 2.02070313 -14.38507813 1.51796875 -15 1 C-14.00097656 1.01160156 -13.00195312 1.02320313 -11.97265625 1.03515625 C-10.68230469 1.04417969 -9.39195312 1.05320312 -8.0625 1.0625 C-6.13083984 1.07990234 -6.13083984 1.07990234 -4.16015625 1.09765625 C-1.13701597 1.36532549 -1.13701597 1.36532549 0 0 Z " fill="#503368" transform="translate(447,330)"/>
<path d="M0 0 C0.77601563 -0.00515625 1.55203125 -0.0103125 2.3515625 -0.015625 C4.375 0.25 4.375 0.25 6.375 2.25 C5.385 2.91 4.395 3.57 3.375 4.25 C3.375 4.91 3.375 5.57 3.375 6.25 C1.065 6.58 -1.245 6.91 -3.625 7.25 C-3.625 6.26 -3.625 5.27 -3.625 4.25 C-2.305 4.25 -0.985 4.25 0.375 4.25 C0.375 3.59 0.375 2.93 0.375 2.25 C-2.97933109 3.19933899 -6.31746505 4.14748835 -9.625 5.25 C-8.625 2.25 -8.625 2.25 -6.8515625 1.078125 C-4.42085003 0.17407054 -2.58604401 -0.01729795 0 0 Z " fill="#B8BCC0" transform="translate(353.625,229.75)"/>
<path d="M0 0 C-0.639375 0.2475 -1.27875 0.495 -1.9375 0.75 C-4.18741541 1.81562433 -4.18741541 1.81562433 -4.75 4.125 C-4.8325 4.74375 -4.915 5.3625 -5 6 C-6.32 5.67 -7.64 5.34 -9 5 C-8.67 4.67 -8.34 4.34 -8 4 C-8.99 3.67 -9.98 3.34 -11 3 C-11 3.66 -11 4.32 -11 5 C-15.38461538 8 -15.38461538 8 -18 8 C-18 8.66 -18 9.32 -18 10 C-18.66 9.67 -19.32 9.34 -20 9 C-13.94701227 2.39674066 -9.11596927 -0.63971714 0 0 Z " fill="#583669" transform="translate(79,94)"/>
<path d="M0 0 C0.33 0.99 0.66 1.98 1 3 C-0.29296875 5.26171875 -0.29296875 5.26171875 -2.1875 7.6875 C-2.79980469 8.49574219 -3.41210938 9.30398438 -4.04296875 10.13671875 C-6 12 -6 12 -10 12 C-9.01 11.67 -8.02 11.34 -7 11 C-7 10.01 -7 9.02 -7 8 C-7.99 7.67 -8.98 7.34 -10 7 C-9.401875 6.731875 -8.80375 6.46375 -8.1875 6.1875 C-6.02775192 5.01506533 -4.64209744 3.80630718 -3 2 C-3 2.66 -3 3.32 -3 4 C-2.34 4 -1.68 4 -1 4 C-0.67 2.68 -0.34 1.36 0 0 Z " fill="#522D63" transform="translate(444,370)"/>
<path d="M0 0 C1.17755859 -0.02126953 1.17755859 -0.02126953 2.37890625 -0.04296875 C4.4375 0.1875 4.4375 0.1875 6.4375 2.1875 C4.1275 2.1875 1.8175 2.1875 -0.5625 2.1875 C-0.8925 3.1775 -1.2225 4.1675 -1.5625 5.1875 C-0.5725 5.5175 0.4175 5.8475 1.4375 6.1875 C0.1175 6.1875 -1.2025 6.1875 -2.5625 6.1875 C-2.5625 5.5275 -2.5625 4.8675 -2.5625 4.1875 C-3.5525 3.8575 -4.5425 3.5275 -5.5625 3.1875 C-5.8925 3.8475 -6.2225 4.5075 -6.5625 5.1875 C-8.53772846 6.23558041 -10.53731509 7.2395411 -12.5625 8.1875 C-11.27239008 5.30956249 -9.98888194 3.22566083 -7.5625 1.1875 C-4.76092552 0.25364184 -2.90802197 0.02395405 0 0 Z " fill="#B6B9BF" transform="translate(417.5625,229.8125)"/>
<path d="M0 0 C3.96193606 0.58326527 6.77394436 1.79897978 10.1875 3.875 C11.04730469 4.38804687 11.90710938 4.90109375 12.79296875 5.4296875 C15 7 15 7 17 10 C16.278125 9.690625 15.55625 9.38125 14.8125 9.0625 C12.10440107 7.91375564 12.10440107 7.91375564 9.5 7.6875 C5.99320456 6.72313125 4.4002165 4.65969936 2 2 C1.34 1.34 0.68 0.68 0 0 Z " fill="#543763" transform="translate(422,145)"/>
<path d="M0 0 C0.33 0.66 0.66 1.32 1 2 C-0.98 4.31 -2.96 6.62 -5 9 C-5.99 8.67 -6.98 8.34 -8 8 C-7.23883449 6.84772177 -6.46567307 5.7033614 -5.6875 4.5625 C-5.25824219 3.92441406 -4.82898438 3.28632813 -4.38671875 2.62890625 C-3 1 -3 1 0 0 Z " fill="#644A8B" transform="translate(331,353)"/>
<path d="M0 0 C0.66 0.66 1.32 1.32 2 2 C1.38511719 2.67095703 1.38511719 2.67095703 0.7578125 3.35546875 C-2.25640074 6.73744485 -4.66050545 9.579668 -6 14 C-6.33 14 -6.66 14 -7 14 C-6.67 11.36 -6.34 8.72 -6 6 C-5.34 6 -4.68 6 -4 6 C-3.896875 5.38125 -3.79375 4.7625 -3.6875 4.125 C-3 2 -3 2 0 0 Z " fill="#644C88" transform="translate(179,242)"/>
<path d="M0 0 C0.99 0.495 0.99 0.495 2 1 C2 1.66 2 2.32 2 3 C2.99 3.33 3.98 3.66 5 4 C7.5859495 6.08865152 8.4376049 7.73810844 9 11 C5.36603447 9.99056513 4.06608233 9.08394242 1.6875 6.0625 C0 3 0 3 0 0 Z " fill="#4E2E75" transform="translate(59,374)"/>
<path d="M0 0 C-1.32 0.99 -2.64 1.98 -4 3 C-1.69 3.33 0.62 3.66 3 4 C3 4.33 3 4.66 3 5 C-0.3 5 -3.6 5 -7 5 C-7.33 4.34 -7.66 3.68 -8 3 C-5.53387212 -0.1151089 -3.89156016 -0.31553191 0 0 Z " fill="#B0B3BB" transform="translate(419,261)"/>
<path d="M0 0 C1.32 0.66 2.64 1.32 4 2 C3.67 3.98 3.34 5.96 3 8 C1.68 7.34 0.36 6.68 -1 6 C-0.67 4.02 -0.34 2.04 0 0 Z " fill="#2D3237" transform="translate(235,273)"/>
<path d="M0 0 C1.2065625 0.0309375 1.2065625 0.0309375 2.4375 0.0625 C1.7775 2.0425 1.1175 4.0225 0.4375 6.0625 C-0.8825 6.0625 -2.2025 6.0625 -3.5625 6.0625 C-2.5725 5.7325 -1.5825 5.4025 -0.5625 5.0625 C-0.5625 4.0725 -0.5625 3.0825 -0.5625 2.0625 C-1.5525 1.7325 -2.5425 1.4025 -3.5625 1.0625 C-2.5625 0.0625 -2.5625 0.0625 0 0 Z " fill="#562F78" transform="translate(437.5625,375.9375)"/>
<path d="M0 0 C1 3 1 3 -0.375 6.0625 C-0.91125 7.031875 -1.4475 8.00125 -2 9 C-2.33 9.66 -2.66 10.32 -3 11 C-3.66 11 -4.32 11 -5 11 C-4.54917531 9.53932801 -4.08906463 8.08151968 -3.625 6.625 C-3.36976563 5.81289062 -3.11453125 5.00078125 -2.8515625 4.1640625 C-2 2 -2 2 0 0 Z " fill="#EBE1F4" transform="translate(177,247)"/>
<path d="M0 0 C1.14926266 0.95421808 2.29430541 1.91352045 3.4375 2.875 C4.07558594 3.40867187 4.71367187 3.94234375 5.37109375 4.4921875 C7 6 7 6 8 8 C6.68 8 5.36 8 4 8 C4 7.34 4 6.68 4 6 C3.01 5.67 2.02 5.34 1 5 C1.33 4.34 1.66 3.68 2 3 C1.34 3 0.68 3 0 3 C0 2.01 0 1.02 0 0 Z " fill="#59396E" transform="translate(209,119)"/>
<path d="M0 0 C2.31 1.98 4.62 3.96 7 6 C3.25 9 3.25 9 1 9 C1.66 7.35 2.32 5.7 3 4 C2.34 4 1.68 4 1 4 C0.67 2.68 0.34 1.36 0 0 Z " fill="#55346F" transform="translate(202,112)"/>
<path d="M0 0 C3 1 3 1 5 3 C2.24921116 3.91692961 0.64051087 4.10886083 -2.1875 4.0625 C-4.0746875 4.0315625 -4.0746875 4.0315625 -6 4 C-4.68 3.67 -3.36 3.34 -2 3 C-2 2.34 -2 1.68 -2 1 C-1.34 0.67 -0.68 0.34 0 0 Z " fill="#593176" transform="translate(424,384)"/>
<path d="M0 0 C1.07310858 3.27185553 0.89263102 5.42947592 0.0625 8.75 C-0.13214844 9.54921875 -0.32679688 10.3484375 -0.52734375 11.171875 C-0.68332031 11.77515625 -0.83929688 12.3784375 -1 13 C-1.33 13 -1.66 13 -2 13 C-2.05416188 11.39620659 -2.09286638 9.79188594 -2.125 8.1875 C-2.14820313 7.29417969 -2.17140625 6.40085937 -2.1953125 5.48046875 C-2 3 -2 3 0 0 Z " fill="#432848" transform="translate(447,357)"/>
<path d="M0 0 C2.7972908 2.06756277 3.02692273 3.14440371 3.6875 6.6875 C3.790625 7.780625 3.89375 8.87375 4 10 C2 8 0 6 -2 4 C-1.34 2.68 -0.68 1.36 0 0 Z " fill="#4D2A5F" transform="translate(443,162)"/>
<path d="M0 0 C1.32 0 2.64 0 4 0 C3.25 6.75 3.25 6.75 1 9 C0.67 6.03 0.34 3.06 0 0 Z " fill="#563D7A" transform="translate(189,209)"/>
<path d="M0 0 C2.45823172 3.68734758 3.01242616 6.69699971 4 11 C3.01 10.67 2.02 10.34 1 10 C-0.60725635 6.78548731 -0.05748185 3.56387464 0 0 Z " fill="#715D91" transform="translate(171,347)"/>
<path d="M0 0 C2.31 1.65 4.62 3.3 7 5 C6.67 5.66 6.34 6.32 6 7 C4.68 6.34 3.36 5.68 2 5 C2 4.34 2 3.68 2 3 C1.01 2.67 0.02 2.34 -1 2 C-0.67 1.34 -0.34 0.68 0 0 Z " fill="#685298" transform="translate(178,361)"/>
<path d="M0 0 C1.32 0.66 2.64 1.32 4 2 C2.37660195 3.70884005 0.70680947 5.37446717 -1 7 C-1.66 7 -2.32 7 -3 7 C-1.125 1.125 -1.125 1.125 0 0 Z " fill="#543464" transform="translate(58,104)"/>
<path d="M0 0 C0.66 0.33 1.32 0.66 2 1 C1.625 3.9375 1.625 3.9375 1 7 C0.01 7.495 0.01 7.495 -1 8 C-1.04241723 5.66705225 -1.04092937 3.33297433 -1 1 C-0.67 0.67 -0.34 0.34 0 0 Z " fill="#582281" transform="translate(446,352)"/>
<path d="M0 0 C-1.36983503 3.16115776 -1.9890638 3.9927092 -5 6 C-5.99 5.67 -6.98 5.34 -8 5 C-7.34 5 -6.68 5 -6 5 C-6 4.34 -6 3.68 -6 3 C-2.53846154 0 -2.53846154 0 0 0 Z " fill="#525257" transform="translate(316,350)"/>
<path d="M0 0 C0.99 0.66 1.98 1.32 3 2 C2.05125 2.45375 1.1025 2.9075 0.125 3.375 C-3.00313679 4.80238254 -3.00313679 4.80238254 -5 7 C-5.33 5.68 -5.66 4.36 -6 3 C-4.68 3 -3.36 3 -2 3 C-2 2.34 -2 1.68 -2 1 C-1.34 0.67 -0.68 0.34 0 0 Z " fill="#44464B" transform="translate(243,274)"/>
<path d="M0 0 C3.7952131 1.49097658 5.61042731 3.75700849 8 7 C6.35 6.67 4.7 6.34 3 6 C3 5.01 3 4.02 3 3 C2.34 3 1.68 3 1 3 C0.67 2.01 0.34 1.02 0 0 Z " fill="#5E3B5E" transform="translate(183,93)"/>
<path d="M0 0 C1.32 0.33 2.64 0.66 4 1 C4.33 2.98 4.66 4.96 5 7 C1.18461538 4.53846154 1.18461538 4.53846154 0.25 1.8125 C0.1675 1.214375 0.085 0.61625 0 0 Z " fill="#EDE3F6" transform="translate(173,353)"/>
<path d="M0 0 C2.97 0.495 2.97 0.495 6 1 C6 1.66 6 2.32 6 3 C6.99 3.33 7.98 3.66 9 4 C8.34 4.66 7.68 5.32 7 6 C4.56070254 4.07423885 2.19909405 2.19909405 0 0 Z " fill="#5F5F64" transform="translate(257,276)"/>
<path d="" fill="#FFFF00" transform="translate(0,0)"/>
<path d="" fill="#FFFF00" transform="translate(0,0)"/>
<path d="" fill="#FFFF00" transform="translate(0,0)"/>
<path d="" fill="#FFFF00" transform="translate(0,0)"/>
<path d="" fill="#FFFF00" transform="translate(0,0)"/>
<path d="" fill="#FFFF00" transform="translate(0,0)"/>
<path d="" fill="#FFFF00" transform="translate(0,0)"/>
<path d="" fill="#FFFF00" transform="translate(0,0)"/>
<path d="" fill="#FFFF00" transform="translate(0,0)"/>
<path d="" fill="#FFFF00" transform="translate(0,0)"/>
<path d="" fill="#FFFF00" transform="translate(0,0)"/>
<path d="" fill="#FFFF00" transform="translate(0,0)"/>
<path d="" fill="#FFFF00" transform="translate(0,0)"/>
<path d="" fill="#FFFF00" transform="translate(0,0)"/>
<path d="" fill="#FFFF00" transform="translate(0,0)"/>
<path d="" fill="#FFFF00" transform="translate(0,0)"/>
<path d="" fill="#FFFF00" transform="translate(0,0)"/>
<path d="" fill="#FFFF00" transform="translate(0,0)"/>
<path d="" fill="#FFFF00" transform="translate(0,0)"/>
<path d="" fill="#FFFF00" transform="translate(0,0)"/>
<path d="" fill="#FFFF00" transform="translate(0,0)"/>
<path d="" fill="#FFFF00" transform="translate(0,0)"/>
<path d="" fill="#FFFF00" transform="translate(0,0)"/>
<path d="" fill="#FFFF00" transform="translate(0,0)"/>
<path d="" fill="#FFFF00" transform="translate(0,0)"/>
<path d="" fill="#FFFF00" transform="translate(0,0)"/>
<path d="" fill="#FFFE00" transform="translate(0,0)"/>
<path d="" fill="#FFFF00" transform="translate(0,0)"/>
<path d="" fill="#FFFF00" transform="translate(0,0)"/>
<path d="" fill="#FFFF00" transform="translate(0,0)"/>
<path d="" fill="#FFFF00" transform="translate(0,0)"/>
<path d="" fill="#FFFF00" transform="translate(0,0)"/>
<path d="" fill="#FFFF00" transform="translate(0,0)"/>
<path d="" fill="#FFFF00" transform="translate(0,0)"/>
<path d="" fill="#FFFF00" transform="translate(0,0)"/>
<path d="" fill="#FFFF00" transform="translate(0,0)"/>
<path d="" fill="#FFFF00" transform="translate(0,0)"/>
<path d="" fill="#FFFF00" transform="translate(0,0)"/>
<path d="" fill="#FFFF00" transform="translate(0,0)"/>
<path d="" fill="#FFFF00" transform="translate(0,0)"/>
<path d="" fill="#FFFF00" transform="translate(0,0)"/>
<path d="" fill="#FFFF00" transform="translate(0,0)"/>
<path d="" fill="#FFFF00" transform="translate(0,0)"/>
<path d="" fill="#FFFF00" transform="translate(0,0)"/>
<path d="" fill="#FFFF00" transform="translate(0,0)"/>
<path d="" fill="#FFFF00" transform="translate(0,0)"/>
<path d="" fill="#FFFF00" transform="translate(0,0)"/>
<path d="" fill="#FFFF00" transform="translate(0,0)"/>
<path d="" fill="#FFFF00" transform="translate(0,0)"/>
<path d="" fill="#FFFF00" transform="translate(0,0)"/>
<path d="" fill="#FFFF00" transform="translate(0,0)"/>
<path d="" fill="#FFFF00" transform="translate(0,0)"/>
<path d="" fill="#FFFF00" transform="translate(0,0)"/>
<path d="" fill="#FFFF00" transform="translate(0,0)"/>
<path d="" fill="#FFFF00" transform="translate(0,0)"/>
</svg>
